{
  "accessors": [
    {
      "bufferView": 2,
      "componentType": 5126,
      "count": 3819,
      "max": [
        110.6344985961914,
        474.688720703125,
        103.94062805175781
      ],
      "min": [
        -110.84175109863281,
        0.0,
        -125.5528564453125
      ],
      "type": "VEC3"
    },
    {
      "bufferView": 2,
      "byteOffset": 45828,
      "componentType": 5126,
      "count": 3819,
      "max": [
        1.0,
        1.0,
        1.0
      ],
      "min": [
        -1.0,
        -1.0,
        -1.0
      ],
      "type": "VEC3"
    },
    {
      "bufferView": 3,
      "componentType": 5126,
      "count": 3819,
      "max": [
        0.9999767541885376,
        1.0,
        1.0,
        1.0
      ],
      "min": [
        -0.9999803900718689,
        -0.9999616742134094,
        -1.0,
        -1.0
      ],
      "type": "VEC4"
    },
    {
      "bufferView": 1,
      "componentType": 5126,
      "count": 3819,
      "max": [
        0.8004980087280273,
        0.9734299778938293
      ],
      "min": [
        0.029935000464320183,
        0.019896000623703003
      ],
      "type": "VEC2"
    },
    {
      "bufferView": 1,
      "byteOffset": 30552,
      "componentType": 5126,
      "count": 3819,
      "max": [
        0.0,
        0.0
      ],
      "min": [
        0.0,
        0.0
      ],
      "type": "VEC2"
    },
    {
      "bufferView": 0,
      "componentType": 5125,
      "count": 14043,
      "type": "SCALAR"
    },
    {
      "bufferView": 2,
      "byteOffset": 91656,
      "componentType": 5126,
      "count": 1935,
      "max": [
        548.56396484375,
        1894.593017578125,
        746.8109741210938
      ],
      "min": [
        -548.56396484375,
        462.02801513671875,
        -651.4732055664063
      ],
      "type": "VEC3"
    },
    {
      "bufferView": 2,
      "byteOffset": 114876,
      "componentType": 5126,
      "count": 1935,
      "max": [
        0.9999988675117493,
        1.0,
        0.9987386465072632
      ],
      "min": [
        -0.9999988675117493,
        -0.9998621344566345,
        -0.9991937875747681
      ],
      "type": "VEC3"
    },
    {
      "bufferView": 3,
      "byteOffset": 61104,
      "componentType": 5126,
      "count": 1935,
      "max": [
        1.0,
        0.9907405972480774,
        0.9998340010643005,
        1.0
      ],
      "min": [
        -0.9999889731407166,
        -0.9997610449790955,
        -0.9999923706054688,
        1.0
      ],
      "type": "VEC4"
    },
    {
      "bufferView": 1,
      "byteOffset": 61104,
      "componentType": 5126,
      "count": 1935,
      "max": [
        0.9921889901161194,
        0.9743329882621765
      ],
      "min": [
        0.008809000253677368,
        0.011628000065684319
      ],
      "type": "VEC2"
    },
    {
      "bufferView": 1,
      "byteOffset": 76584,
      "componentType": 5126,
      "count": 1935,
      "max": [
        0.0,
        0.0
      ],
      "min": [
        0.0,
        0.0
      ],
      "type": "VEC2"
    },
    {
      "bufferView": 0,
      "byteOffset": 56172,
      "componentType": 5125,
      "count": 9576,
      "type": "SCALAR"
    },
    {
      "bufferView": 2,
      "byteOffset": 138096,
      "componentType": 5126,
      "count": 62,
      "max": [
        -26.732879638671875,
        315.5833740234375,
        22.721702575683594
      ],
      "min": [
        -83.79948425292969,
        304.83544921875,
        -2.5012590885162354
      ],
      "type": "VEC3"
    },
    {
      "bufferView": 2,
      "byteOffset": 138840,
      "componentType": 5126,
      "count": 62,
      "max": [
        0.3431868851184845,
        0.9981677532196045,
        0.9219092130661011
      ],
      "min": [
        -0.9500190019607544,
        -0.9995844960212708,
        -0.9460875391960144
      ],
      "type": "VEC3"
    },
    {
      "bufferView": 3,
      "byteOffset": 92064,
      "componentType": 5126,
      "count": 62,
      "max": [
        0.865852952003479,
        0.8733213543891907,
        0.9933241009712219,
        1.0
      ],
      "min": [
        -0.7729647159576416,
        -0.9818629026412964,
        -0.9018028974533081,
        1.0
      ],
      "type": "VEC4"
    },
    {
      "bufferView": 1,
      "byteOffset": 92064,
      "componentType": 5126,
      "count": 62,
      "max": [
        0.6771159768104553,
        0.28666800260543823
      ],
      "min": [
        0.6535490155220032,
        0.2602599859237671
      ],
      "type": "VEC2"
    },
    {
      "bufferView": 1,
      "byteOffset": 92560,
      "componentType": 5126,
      "count": 62,
      "max": [
        0.9533479809761047,
        1.0
      ],
      "min": [
        0.0,
        0.0
      ],
      "type": "VEC2"
    },
    {
      "bufferView": 0,
      "byteOffset": 94476,
      "componentType": 5125,
      "count": 156,
      "type": "SCALAR"
    }
  ],
  "asset": {
    "extras": {
      "author": "savscarlett (https://sketchfab.com/savscarlett)",
      "license": "CC-BY-NC-4.0 (http://creativecommons.org/licenses/by-nc/4.0/)",
      "source": "https://sketchfab.com/3d-models/chicken-hot-air-balloon-ae629f0ae3a84403bccc3f0fb54ee273",
      "title": "Chicken Hot Air Balloon"
    },
    "generator": "Sketchfab-12.67.0",
    "version": "2.0"
  },
  "bufferViews": [
    {
      "buffer": 0,
      "byteLength": 95100,
      "name": "floatBufferViews",
      "target": 34963
    },
    {
      "buffer": 0,
      "byteLength": 93056,
      "byteOffset": 95100,
      "byteStride": 8,
      "name": "floatBufferViews",
      "target": 34962
    },
    {
      "buffer": 0,
      "byteLength": 139584,
      "byteOffset": 188156,
      "byteStride": 12,
      "name": "floatBufferViews",
      "target": 34962
    },
    {
      "buffer": 0,
      "byteLength": 93056,
      "byteOffset": 327740,
      "byteStride": 16,
      "name": "floatBufferViews",
      "target": 34962
    }
  ],
  "buffers": [
    {
      "byteLength": 420796,
      "uri": "scene.bin"
    }
  ],
  "images": [
    {
      "uri": "textures/1001_baseColor.jpeg"
    },
    {
      "uri": "textures/1001_metallicRoughness.png"
    },
    {
      "uri": "textures/1001_emissive.jpeg"
    },
    {
      "uri": "textures/1001_normal.png"
    },
    {
      "uri": "textures/1002_baseColor.jpeg"
    },
    {
      "uri": "textures/1002_metallicRoughness.png"
    },
    {
      "uri": "textures/1002_emissive.jpeg"
    },
    {
      "uri": "textures/1002_normal.png"
    }
  ],
  "materials": [
    {
      "doubleSided": true,
      "emissiveFactor": [
        1.0,
        1.0,
        1.0
      ],
      "emissiveTexture": {
        "index": 2
      },
      "name": "1001",
      "normalTexture": {
        "index": 3
      },
      "occlusionTexture": {
        "index": 1
      },
      "pbrMetallicRoughness": {
        "baseColorTexture": {
          "index": 0
        },
        "metallicRoughnessTexture": {
          "index": 1
        }
      }
    },
    {
      "doubleSided": true,
      "emissiveFactor": [
        1.0,
        1.0,
        1.0
      ],
      "emissiveTexture": {
        "index": 6
      },
      "name": "1002",
      "normalTexture": {
        "index": 7
      },
      "occlusionTexture": {
        "index": 5
      },
      "pbrMetallicRoughness": {
        "baseColorTexture": {
          "index": 4
        },
        "metallicRoughnessTexture": {
          "index": 5
        }
      }
    }
  ],
  "meshes": [
    {
      "name": "defaultMaterial",
      "primitives": [
        {
          "attributes": {
            "NORMAL": 1,
            "POSITION": 0,
            "TANGENT": 2,
            "TEXCOORD_0": 3,
            "TEXCOORD_1": 4
          },
          "indices": 5,
          "material": 0,
          "mode": 4
        }
      ]
    },
    {
      "name": "defaultMaterial",
      "primitives": [
        {
          "attributes": {
            "NORMAL": 7,
            "POSITION": 6,
            "TANGENT": 8,
            "TEXCOORD_0": 9,
            "TEXCOORD_1": 10
          },
          "indices": 11,
          "material": 1,
          "mode": 4
        }
      ]
    },
    {
      "name": "defaultMaterial",
      "primitives": [
        {
          "attributes": {
            "NORMAL": 13,
            "POSITION": 12,
            "TANGENT": 14,
            "TEXCOORD_0": 15,
            "TEXCOORD_1": 16
          },
          "indices": 17,
          "material": 0,
          "mode": 4
        }
      ]
    }
  ],
  "nodes": [
    {
      "children": [
        1
      ],
      "matrix": [
        0.6060606241226196,
        0.0,
        0.0,
        0.0,
        0.0,
        1.3457249184392497e-16,
        -0.6060606241226196,
        0.0,
        0.0,
        0.6060606241226196,
        1.3457249184392497e-16,
        0.0,
        0.0,
        0.0,
        0.0,
        1.0
      ],
      "name": "Sketchfab_model"
    },
    {
      "children": [
        2
      ],
      "matrix": [
        1.0,
        0.0,
        0.0,
        0.0,
        0.0,
        -4.371139006309477e-08,
        0.999999999999999,
        0.0,
        0.0,
        -0.999999999999999,
        -4.371139006309477e-08,
        0.0,
        0.0,
        0.0,
        0.0,
        1.0
      ],
      "name": "Collada visual scene group"
    },
    {
      "children": [
        3,
        4,
        5
      ],
      "matrix": [
        0.01,
        0.0,
        0.0,
        0.0,
        0.0,
        0.01,
        0.0,
        0.0,
        0.0,
        0.0,
        0.01,
        0.0,
        0.0,
        0.0,
        0.0,
        1.0
      ],
      "name": "LowPolyNoLegs"
    },
    {
      "mesh": 0,
      "name": "defaultMaterial"
    },
    {
      "mesh": 1,
      "name": "defaultMaterial"
    },
    {
      "mesh": 2,
      "name": "defaultMaterial"
    }
  ],
  "samplers": [
    {
      "magFilter": 9729,
      "minFilter": 9987,
      "wrapS": 10497,
      "wrapT": 10497
    }
  ],
  "scene": 0,
  "scenes": [
    {
      "name": "Sketchfab_Scene",
      "nodes": [
        0
      ]
    }
  ],
  "textures": [
    {
      "sampler": 0,
      "source": 0
    },
    {
      "sampler": 0,
      "source": 1
    },
    {
      "sampler": 0,
      "source": 2
    },
    {
      "sampler": 0,
      "source": 3
    },
    {
      "sampler": 0,
      "source": 4
    },
    {
      "sampler": 0,
      "source": 5
    },
    {
      "sampler": 0,
      "source": 6
    },
    {
      "sampler": 0,
      "source": 7
    }
  ]
}
